<?xml version="1.0" encoding="utf-8"?>
<!-- created with bpmn-js / http://bpmn.io -->
<!DOCTYPE svg PUBLIC "-//W3C//DTD SVG 1.1//EN" "http://www.w3.org/Graphics/SVG/1.1/DTD/svg11.dtd">
<svg xmlns="http://www.w3.org/2000/svg" xmlns:xlink="http://www.w3.org/1999/xlink" width="760" height="353" viewBox="246 177 760 353" version="1.1"><defs><marker id="sequenceflow-end-white-black-8ffru1uq8snkxqmrb61a1wb26" viewBox="0 0 20 20" refX="11" refY="10" markerWidth="10" markerHeight="10" orient="auto"><path d="M 1 5 L 11 10 L 1 15 Z" style="fill: black; stroke-width: 1px; stroke-linecap: round; stroke-dasharray: 10000, 1; stroke: black;"/></marker><marker id="conditional-default-flow-marker-white-black-8ffru1uq8snkxqmrb61a1wb26" viewBox="0 0 20 20" refX="0" refY="10" markerWidth="10" markerHeight="10" orient="auto"><path d="M 6 4 L 10 16" style="fill: black; stroke-width: 1px; stroke-linecap: round; stroke-dasharray: 10000, 1; stroke: black;"/></marker></defs><g class="djs-group"><g class="djs-element djs-shape" data-element-id="Participant_16jhtlu" style="display: block;" transform="translate(252 183)"><g class="djs-visual"><rect x="0" y="0" width="748" height="341" rx="0" ry="0" style="stroke: black; stroke-width: 2px; fill: white; fill-opacity: 0.95;"/><polyline points="30,0 30,341 " style="fill: none; stroke: black; stroke-width: 2px;"/><text class="djs-label" style="font-family: Arial, sans-serif; font-size: 12px; fill: black;" transform="matrix(-1.83697e-16 -1 1 -1.83697e-16 0 341)"><tspan x="112.4765625" y="18.5">Student register Form</tspan></text></g><rect x="0" y="0" width="748" height="341" class="djs-hit" style="fill: none; stroke-opacity: 0; stroke: white; stroke-width: 15px;"/><rect x="-6" y="-6" width="760" height="353" class="djs-outline" style="fill: none;"/></g><g class="djs-children"><g class="djs-group"><g class="djs-element djs-connection" data-element-id="SequenceFlow_1nule3h" style="display: block;"><g class="djs-visual"><path d="m  702,297L702,420 L622,420 " style="fill: none; stroke-width: 2px; stroke: black; stroke-linejoin: round; marker-end: url('#sequenceflow-end-white-black-8ffru1uq8snkxqmrb61a1wb26');"/></g><polyline points="702,297 702,420 622,420 " class="djs-hit" style="fill: none; stroke-opacity: 0; stroke: white; stroke-width: 15px;"/><rect x="616" y="291" width="92" height="135" class="djs-outline" style="fill: none;"/></g></g><g class="djs-group"><g class="djs-element djs-connection" data-element-id="SequenceFlow_1qswzgm" style="display: block;"><g class="djs-visual"><path d="m  572,380L572,312 " style="fill: none; stroke-width: 2px; stroke: black; stroke-linejoin: round; marker-end: url('#sequenceflow-end-white-black-8ffru1uq8snkxqmrb61a1wb26');"/></g><polyline points="572,380 572,312 " class="djs-hit" style="fill: none; stroke-opacity: 0; stroke: white; stroke-width: 15px;"/><rect x="566" y="306" width="12" height="80" class="djs-outline" style="fill: none;"/></g></g><g class="djs-group"><g class="djs-element djs-connection" data-element-id="SequenceFlow_0869ajy" style="display: block;"><g class="djs-visual"><path d="m  622,272L677,272 " style="fill: none; stroke-width: 2px; stroke: black; stroke-linejoin: round; marker-end: url('#sequenceflow-end-white-black-8ffru1uq8snkxqmrb61a1wb26');"/></g><polyline points="622,272 677,272 " class="djs-hit" style="fill: none; stroke-opacity: 0; stroke: white; stroke-width: 15px;"/><rect x="616" y="266" width="67" height="12" class="djs-outline" style="fill: none;"/></g></g><g class="djs-group"><g class="djs-element djs-connection" data-element-id="SequenceFlow_0ek6hcq" style="display: block;"><g class="djs-visual"><path d="m  430,272L522,272 " style="fill: none; stroke-width: 2px; stroke: black; stroke-linejoin: round; marker-end: url('#sequenceflow-end-white-black-8ffru1uq8snkxqmrb61a1wb26');"/></g><polyline points="430,272 522,272 " class="djs-hit" style="fill: none; stroke-opacity: 0; stroke: white; stroke-width: 15px;"/><rect x="424" y="266" width="104" height="12" class="djs-outline" style="fill: none;"/></g></g><g class="djs-group"><g class="djs-element djs-connection" data-element-id="SequenceFlow_0oig3kp" style="display: block;"><g class="djs-visual"><path d="m  727,272L781,272 " style="fill: none; stroke-width: 2px; stroke: black; stroke-linejoin: round; marker-end: url('#sequenceflow-end-white-black-8ffru1uq8snkxqmrb61a1wb26');"/></g><polyline points="727,272 781,272 " class="djs-hit" style="fill: none; stroke-opacity: 0; stroke: white; stroke-width: 15px;"/><rect x="721" y="266" width="66" height="12" class="djs-outline" style="fill: none;"/></g></g><g class="djs-group"><g class="djs-element djs-shape" data-element-id="Task_09jrnod" style="display: block;" transform="translate(522 380)"><g class="djs-visual"><rect x="0" y="0" width="100" height="80" rx="10" ry="10" style="stroke: black; stroke-width: 2px; fill: white; fill-opacity: 0.95;"/><text class="djs-label" style="font-family: Arial, sans-serif; font-size: 12px; fill: black;"><tspan x="14.328125" y="36.5">Prompt users </tspan><tspan x="24" y="50.5">with error</tspan></text></g><rect x="0" y="0" width="100" height="80" class="djs-hit" style="fill: none; stroke-opacity: 0; stroke: white; stroke-width: 15px;"/><rect x="-6" y="-6" width="112" height="92" class="djs-outline" style="fill: none;"/></g></g><g class="djs-group"><g class="djs-element djs-shape" data-element-id="ExclusiveGateway_13y7j4z" style="display: block;" transform="translate(677 247)"><g class="djs-visual"><polygon points="25,0 50,25 25,50 0,25" style="stroke: black; stroke-width: 2px; fill: white; fill-opacity: 0.95;"/><path d="m 16,15 7.42857142857143,9.714285714285715 -7.42857142857143,9.714285714285715 3.428571428571429,0 5.714285714285715,-7.464228571428572 5.714285714285715,7.464228571428572 3.428571428571429,0 -7.42857142857143,-9.714285714285715 7.42857142857143,-9.714285714285715 -3.428571428571429,0 -5.714285714285715,7.464228571428572 -5.714285714285715,-7.464228571428572 -3.428571428571429,0 z" style="fill: black; stroke-width: 1px; stroke: black;"/></g><rect x="0" y="0" width="50" height="50" class="djs-hit" style="fill: none; stroke-opacity: 0; stroke: white; stroke-width: 15px;"/><rect x="-6" y="-6" width="62" height="62" class="djs-outline" style="fill: none;"/></g></g><g class="djs-group"><g class="djs-element djs-shape" data-element-id="Task_0u25dbh" style="display: block;" transform="translate(522 232)"><g class="djs-visual"><rect x="0" y="0" width="100" height="80" rx="10" ry="10" style="stroke: black; stroke-width: 2px; fill: white; fill-opacity: 0.95;"/><text class="djs-label" style="font-family: Arial, sans-serif; font-size: 12px; fill: black;"><tspan x="6.3203125" y="43.5">Process request</tspan></text></g><rect x="0" y="0" width="100" height="80" class="djs-hit" style="fill: none; stroke-opacity: 0; stroke: white; stroke-width: 15px;"/><rect x="-6" y="-6" width="112" height="92" class="djs-outline" style="fill: none;"/></g></g><g class="djs-group"><g class="djs-element djs-shape" data-element-id="StartEvent_0mz3im9" style="display: block;" transform="translate(394 254)"><g class="djs-visual"><circle cx="18" cy="18" r="18" style="stroke: black; stroke-width: 2px; fill: white; fill-opacity: 0.95;"/></g><rect x="0" y="0" width="36" height="36" class="djs-hit" style="fill: none; stroke-opacity: 0; stroke: white; stroke-width: 15px;"/><rect x="-6" y="-6" width="48" height="48" class="djs-outline" style="fill: none;"/></g></g><g class="djs-group"><g class="djs-element djs-shape" data-element-id="ExclusiveGateway_13y7j4z_label" style="display: none;" transform="translate(702 225)"><g class="djs-visual"><text class="djs-label" style="font-family: Arial, sans-serif; font-size: 11px;"><tspan x="0" y="12"/></text></g><rect x="0" y="0" width="0" height="12" class="djs-hit" style="fill: none; stroke-opacity: 0; stroke: white; stroke-width: 15px;"/><rect x="-6" y="-6" width="12" height="24" class="djs-outline" style="fill: none;"/></g></g><g class="djs-group"><g class="djs-element djs-shape" data-element-id="SequenceFlow_1qswzgm_label" style="display: none;" transform="translate(587 340)"><g class="djs-visual"><text class="djs-label" style="font-family: Arial, sans-serif; font-size: 11px;"><tspan x="0" y="12"/></text></g><rect x="0" y="0" width="0" height="12" class="djs-hit" style="fill: none; stroke-opacity: 0; stroke: white; stroke-width: 15px;"/><rect x="-6" y="-6" width="12" height="24" class="djs-outline" style="fill: none;"/></g></g><g class="djs-group"><g class="djs-element djs-shape" data-element-id="StartEvent_0mz3im9_label" style="display: block;" transform="translate(383 294)"><g class="djs-visual"><text class="djs-label" style="font-family: Arial, sans-serif; font-size: 11px;"><tspan x="0" y="12">Fill out form</tspan></text></g><rect x="0" y="0" width="58" height="12" class="djs-hit" style="fill: none; stroke-opacity: 0; stroke: white; stroke-width: 15px;"/><rect x="-6" y="-6" width="70" height="24" class="djs-outline" style="fill: none;"/></g></g><g class="djs-group"><g class="djs-element djs-shape" data-element-id="SequenceFlow_0ek6hcq_label" style="display: none;" transform="translate(476 251)"><g class="djs-visual"><text class="djs-label" style="font-family: Arial, sans-serif; font-size: 11px;"><tspan x="0" y="12"/></text></g><rect x="0" y="0" width="0" height="12" class="djs-hit" style="fill: none; stroke-opacity: 0; stroke: white; stroke-width: 15px;"/><rect x="-6" y="-6" width="12" height="24" class="djs-outline" style="fill: none;"/></g></g><g class="djs-group"><g class="djs-element djs-shape" data-element-id="Task_1feshsn" style="display: block;" transform="translate(781 232)"><g class="djs-visual"><rect x="0" y="0" width="100" height="80" rx="10" ry="10" style="stroke: black; stroke-width: 2px; fill: white; fill-opacity: 0.95;"/><text class="djs-label" style="font-family: Arial, sans-serif; font-size: 12px; fill: black;"><tspan x="10.6484375" y="36.5">Add student to </tspan><tspan x="25.1484375" y="50.5">database</tspan></text></g><rect x="0" y="0" width="100" height="80" class="djs-hit" style="fill: none; stroke-opacity: 0; stroke: white; stroke-width: 15px;"/><rect x="-6" y="-6" width="112" height="92" class="djs-outline" style="fill: none;"/></g></g><g class="djs-group"><g class="djs-element djs-shape" data-element-id="SequenceFlow_0oig3kp_label" style="display: none;" transform="translate(754 251)"><g class="djs-visual"><text class="djs-label" style="font-family: Arial, sans-serif; font-size: 11px;"><tspan x="0" y="12"/></text></g><rect x="0" y="0" width="0" height="12" class="djs-hit" style="fill: none; stroke-opacity: 0; stroke: white; stroke-width: 15px;"/><rect x="-6" y="-6" width="12" height="24" class="djs-outline" style="fill: none;"/></g></g><g class="djs-group"><g class="djs-element djs-shape" data-element-id="SequenceFlow_1nule3h_label" style="display: block;" transform="translate(710 308)"><g class="djs-visual"><text class="djs-label" style="font-family: Arial, sans-serif; font-size: 11px;"><tspan x="0" y="12">assert</tspan></text></g><rect x="0" y="0" width="31" height="12" class="djs-hit" style="fill: none; stroke-opacity: 0; stroke: white; stroke-width: 15px;"/><rect x="-6" y="-6" width="43" height="24" class="djs-outline" style="fill: none;"/></g></g><g class="djs-group"><g class="djs-element djs-shape" data-element-id="SequenceFlow_0869ajy_label" style="display: block;" transform="translate(734 250)"><g class="djs-visual"><text class="djs-label" style="font-family: Arial, sans-serif; font-size: 11px;"><tspan x="0" y="12">pass</tspan></text></g><rect x="0" y="0" width="24" height="12" class="djs-hit" style="fill: none; stroke-opacity: 0; stroke: white; stroke-width: 15px;"/><rect x="-6" y="-6" width="36" height="24" class="djs-outline" style="fill: none;"/></g></g></g></g><g class="djs-drag-group" style="pointer-events: none;" transform="translate(285 87)"/><g class="djs-drag-group" style="pointer-events: none;" transform="translate(-178 -58)"/><g class="djs-drag-group" style="pointer-events: none;" transform="translate(5 179)"/><g class="djs-drag-group" style="pointer-events: none;" transform="translate(8 -90)"/><g class="djs-drag-group" style="pointer-events: none;" transform="translate(4 60)"/><g class="djs-drag-group" style="pointer-events: none;" transform="translate(227 -173)"/><g class="djs-drag-group" style="pointer-events: none;" transform="translate(-18 102)"/><g class="djs-drag-group" style="pointer-events: none;" transform="translate(-7 102)"/><g class="djs-drag-group" style="pointer-events: none;" transform="translate(-17 87)"/><g class="djs-drag-group" style="pointer-events: none;" transform="translate(-237 -102)"/><g class="djs-drag-group" style="pointer-events: none;" transform="translate(263 53)"/><g class="djs-drag-group" style="pointer-events: none;" transform="translate(247 53)"/><g class="djs-drag-group" style="pointer-events: none;" transform="translate(83 0)"/><g class="djs-drag-group" style="pointer-events: none;" transform="translate(-177 -33)"/><g class="djs-drag-group" style="pointer-events: none;" transform="translate(-225 -33)"/><g class="djs-drag-group" style="pointer-events: none;" transform="translate(53 0)"/><g class="djs-drag-group" style="pointer-events: none;" transform="translate(-128 -33)"/><g class="djs-drag-group" style="pointer-events: none;" transform="translate(-15 0)"/><g class="djs-drag-group" style="pointer-events: none;" transform="translate(-132 -33)"/><g class="djs-drag-group" style="pointer-events: none;" transform="translate(-23 0)"/><g class="djs-drag-group" style="pointer-events: none;" transform="translate(39 3)"/><g class="djs-drag-group" style="pointer-events: none;" transform="translate(-243 -8)"/><g class="djs-drag-group" style="pointer-events: none;" transform="translate(-105 9)"/><g class="djs-drag-group" style="pointer-events: none;" transform="translate(-25 0)"/><g class="djs-drag-group" style="pointer-events: none;" transform="translate(-79 75)"/><g class="djs-drag-group" style="pointer-events: none;" transform="translate(-45 -400)"/><g class="djs-drag-group" style="pointer-events: none;" transform="translate(-90 -112)"/><g class="djs-drag-group" style="pointer-events: none;" transform="translate(60 -28)"/><g class="djs-drag-group" style="pointer-events: none;" transform="translate(45 44)"/><g class="djs-drag-group" style="pointer-events: none;" transform="translate(13 35)"/><g class="djs-drag-group" style="pointer-events: none;" transform="translate(475 103)"/><g class="djs-drag-group" style="pointer-events: none;" transform="translate(-380 -97)"/><g class="djs-drag-group" style="pointer-events: none;" transform="translate(-22 -63)"/><g class="djs-drag-group" style="pointer-events: none;" transform="translate(93 -55)"/><g class="djs-drag-group" style="pointer-events: none;" transform="translate(-46 133)"/><g class="djs-drag-group" style="pointer-events: none;" transform="translate(97 44)"/><g class="djs-drag-group" style="pointer-events: none;" transform="translate(0 0)"/><g class="djs-drag-group" style="pointer-events: none;" transform="translate(-108 -231)"/><g class="djs-drag-group" style="pointer-events: none;" transform="translate(-75 0)"/><g class="djs-drag-group" style="pointer-events: none;" transform="translate(-42 -53)"/><g class="djs-drag-group" style="pointer-events: none;" transform="translate(0 23)"/><g class="djs-drag-group" style="pointer-events: none;" transform="translate(105 -1)"/><g class="djs-drag-group" style="pointer-events: none;" transform="translate(50 -15)"/><g class="djs-drag-group" style="pointer-events: none;" transform="translate(-9 0)"/></svg>